<svg xmlns="http://www.w3.org/2000/svg" class="css-rrf2ji css-1xbnv7x" width="58px" height="58px" viewBox="0 0 58 58">
  <rect x="6.4541" y="6.45412" width="45.0918" height="45.0918" rx="10.8" fill="#37AB2F"></rect>
  <path d="M17.4693 31.1453C18.6553 31.1453 19.617 30.1849 19.617 29C19.617 27.8151 18.6553 26.8548 17.4693 26.8548C16.2832 26.8548 15.3215 27.8151 15.3215 29C15.3215 30.1849 16.2832 31.1453 17.4693 31.1453Z" fill="white"></path>
  <path d="M40.5307 31.1453C41.7168 31.1453 42.6785 30.1849 42.6785 29C42.6785 27.8151 41.7168 26.8548 40.5307 26.8548C39.3446 26.8548 38.383 27.8151 38.383 29C38.383 30.1849 39.3446 31.1453 40.5307 31.1453Z" fill="white"></path>
  <path d="M30.3516 30.6417H23.8889C23.0034 30.6417 22.2899 29.9038 22.2899 28.9991C22.2899 28.0966 23.0039 27.3592 23.8889 27.3592L30.3518 27.371L28.3622 25.3093C27.7445 24.6714 27.7445 23.64 28.3616 22.9994C28.9847 22.3524 30.0054 22.3535 30.6336 22.9989L35.3174 27.8425C35.6159 28.1508 35.7832 28.5676 35.7832 28.9991C35.7832 29.4324 35.6165 29.8468 35.3176 30.1555L30.6347 35.0009C30.3327 35.316 29.9236 35.4855 29.4978 35.4855C29.0715 35.4855 28.6673 35.3173 28.3616 35.0015C27.7446 34.361 27.7446 33.3301 28.362 32.6892L30.3516 30.6417Z" fill="white"></path>
</svg>
